<svg width="20" height="20" viewBox="0 0 20 20" fill="none" xmlns="http://www.w3.org/2000/svg">
<path fill-rule="evenodd" clip-rule="evenodd" d="M5.4998 8.90005C5.4998 7.02228 7.02204 5.50005 8.8998 5.50005C10.7776 5.50005 12.2998 7.02228 12.2998 8.90005C12.2998 10.7778 10.7776 12.3 8.8998 12.3C7.02204 12.3 5.4998 10.7778 5.4998 8.90005ZM8.8998 4.30005C6.35929 4.30005 4.2998 6.35954 4.2998 8.90005C4.2998 11.4406 6.35929 13.5 8.8998 13.5C9.88114 13.5 10.7907 13.1928 11.5375 12.6691L14.3341 15.4657C14.6465 15.7782 15.1531 15.7782 15.4655 15.4657C15.7779 15.1533 15.7779 14.6468 15.4655 14.3344L12.6689 11.5378C13.1925 10.791 13.4998 9.88139 13.4998 8.90005C13.4998 6.35954 11.4403 4.30005 8.8998 4.30005Z" fill="#797C7B"/>
</svg>
